<svg width="140px" height="236px" xmlns="http://www.w3.org/2000/svg" viewBox="180 -43 140 236" style="background: rgb(0, 59, 100);" preserveAspectRatio="xMidYMid"><defs><filter id="editing-vr"><feFlood flood-color="#000000" flood-opacity="0.7" result="c1"></feFlood><feFlood flood-color="rgba(100%,0%,0%,0.917)" flood-opacity="0.7" result="c3"></feFlood><feComposite operator="in" in="c1" in2="SourceAlpha" result="text-c1"></feComposite><feComposite operator="in" in="c3" in2="SourceAlpha" result="text-c3"></feComposite><feOffset in="text-c1" dx="-7" dy="-3" result="text1"></feOffset><feOffset in="text-c3" dx="7" dy="3" result="text3"></feOffset><feBlend in="SourceGraphic" in2="text1" mode="multiply" result="text4"></feBlend><feBlend in="text4" in2="text3" mode="multiply"></feBlend></filter></defs><g filter="url(#editing-vr)"><g transform="translate(205.44634866714478, 122.53000402450562)"><path d="M73.30-28.15L73.30-28.15L73.30-28.15Q76.84-25.57 76.84-20.06L76.84-20.06L76.84-20.06Q76.84-14.55 74.46-10.68L74.46-10.68L74.46-10.68Q72.08-6.80 67.46-3.81L67.46-3.81L67.46-3.81Q57.53 2.58 40.19 2.58L40.19 2.58L40.19 2.58Q22.85 2.58 13.40-6.46L13.40-6.46L13.40-6.46Q3.94-15.50 3.94-31.55L3.94-31.55L3.94-31.55Q3.94-54.26 15.78-71.54L15.78-71.54L15.78-71.54Q24.75-84.32 40.80-89.76L40.80-89.76L40.80-89.76Q49.10-92.48 57.26-92.48L57.26-92.48L57.26-92.48Q65.42-92.48 70.45-91.39L70.45-91.39L70.45-91.39Q75.48-90.30 79.29-88.13L79.29-88.13L79.29-88.13Q87.58-83.37 87.58-75.75L87.58-75.75L87.58-75.75Q87.58-68.82 81.06-63.65L81.06-63.65L81.06-63.65Q75.07-59.02 70.18-59.02L70.18-59.02L70.18-59.02Q65.28-59.02 63.24-59.70L63.24-59.70L63.24-59.70Q63.78-64.60 63.78-67.80L63.78-67.80L63.78-67.80Q63.78-70.99 63.65-73.30L63.65-73.30L63.65-73.30Q63.51-75.62 62.83-77.79L62.83-77.79L62.83-77.79Q61.47-82.82 57.32-82.82L57.32-82.82L57.32-82.82Q53.18-82.82 49.03-78.95L49.03-78.95L49.03-78.95Q44.88-75.07 41.34-68.54L41.34-68.54L41.34-68.54Q33.32-53.72 33.32-36.18L33.32-36.18L33.32-36.18Q33.32-27.74 38.08-22.92L38.08-22.92L38.08-22.92Q42.84-18.09 53.04-18.09L53.04-18.09L53.04-18.09Q60.66-18.09 67.86-23.12L67.86-23.12L67.86-23.12Q70.99-25.30 73.30-28.15Z" fill="#00ff33"></path></g></g><style>text {
  font-size: 64px;
  font-family: Arial Black;
  dominant-baseline: central;
  text-anchor: middle;
}</style></svg>